<svg id="Layer_1" data-name="Layer 1" xmlns="http://www.w3.org/2000/svg" viewBox="0 0 498.73 500"><title>anolis</title><path d="M270.15,338.41q7.17,16.06,14.36,32.12c.71,1.59,1.8,3,2.43,4.64,6.09,15.58,4,19.26-12.23,22.59-10.19,2.09-20.27.76-30.26-1.08-9.83-1.81-13.67,2.87-13.95,11.83-.2,6.66-.28,13.33,1.26,19.91,1.89,8-1.63,13.83-8.49,17.42C217,449.11,211,448,205.91,443c-5.86-5.8-5.87-12.31-2-19.18,2.83-5.08,8.41-11,2.25-15.81s-11.74,1.17-16.56,5.13c-3.23,2.66-5.9,6-9,8.79-5.25,4.67-11.25,5.7-17.47,2.28s-8.94-8.7-8.1-15.78c.87-7.29,5.66-11.16,12.15-12.88,5.74-1.52,11.86-1.7,17.52-3.43,3.73-1.14,9.48-1.3,10-6.35.51-5.27-5.18-5.91-8.76-7.67-6.41-3.14-13.53-3.62-20.46-4.35-8.85-.92-14.58-5.53-16.19-14-1.29-6.77,2-12.48,8.17-15.7,8.1-4.19,15-1.35,20.69,4.92a74.31,74.31,0,0,0,21.52,16.64c2.12,1.08,4.51,2.94,6.77.93,2.59-2.3,1.39-5.26,0-7.7a107.45,107.45,0,0,0-6.37-9.62c-5.44-7.41-6.41-14.7.4-21.79,5.44-5.65,12-5.68,18.36-2.33,8.29,4.34,9.24,11.69,6.65,19.86-1.28,4-2.51,8-2,12.31,1.75,14.15,10,19.39,23.39,15,4.85-1.59,2.33-4.11,1.33-6.41-4.67-10.75-7.55-21.8-6.79-33.69.27-4.28.12-9.12,2.79-12.1,7-7.85,3.12-12.56-3.34-17.65-22.26-17.56-43.65-36.08-61.55-60.31-2,6.57-3.18,11.22-4.78,15.73-9.77,27.39-15.15,28.65-43.57,23.86-19.71-3.32-21.27-3.84-29.42,14.45-2.34,5.25-5.26,10-10.09,13.17a13.57,13.57,0,0,1-19.24-4,14.14,14.14,0,0,1,4.39-19.35c.58-.38,1.32-.53,1.89-.91,4.4-2.93,12.57-4.16,10.19-11.08-2.13-6.21-9.67-3.78-15.09-3.77-3.86,0-7.71.46-11.57.61-7,.27-11-3.78-13.38-9.83s.14-11.21,4.74-14.93c5.17-4.18,11-4.07,16.57-.26,3.14,2.16,5.52,5.55,9.68,6,3.1.35,6.54,1.43,9-1.28,2.78-3.09,1.78-6.76-.26-9.72-3.16-4.59-6.79-8.88-10.29-13.24-4.43-5.51-7.16-11.42-3.49-18.33,3.19-6,8.46-7.92,15.07-6.84,8.19,1.34,10.58,7.63,11.63,14.36,1.19,7.64,1.92,15.32,5.48,22.33,1.12,2.21,2.38,4.76,5.19,4.61,3.59-.19,4.22-3.47,4.54-6.18.45-3.81.17-7.71.45-11.55.53-7.36,4.84-11.56,11.87-12.62,6.14-.93,11.32,1.65,14.06,7.14,3.1,6.21,2.32,12.47-3.38,17.06-5.2,4.19-10.93,7.7-12.35,15-.68,3.47-.85,6.83,3.47,7.21A73.19,73.19,0,0,1,147.92,263c3.76,1.27,3.81-2.48,4.06-4.51a77.65,77.65,0,0,1,11.89-32.27c3-4.68.18-8-1.67-11.61-12.09-23.94-18.38-48.9-15.87-76.08,4-43.8,46.33-84,90.61-85.17,11.42-.31,15.55,3.68,17.11,15.09,3.92,28.78-4.28,53.11-25,73.62a27.56,27.56,0,0,0,4,42.94c3.76,2.54,8.23.9,12.28,2,11.56,3.15,22.77,7.2,33,13.41,5.15,3.12,7.79,1.81,8.61-3.77,1-6.43,4.78-11.61,7.14-17.43,2.16-5.31.54-7.68-5.25-8.33-7.57-.84-14.7,1-21.77,2.86-6.67,1.78-12.28.27-15.63-5.24-3.49-5.73-3.34-12.38,1.56-17.6,4.58-4.87,10.37-5.4,16.37-2.37,1.88.95,3.66,2.07,5.54,3,3.68,1.85,8.12,5.64,11.47,2.24,3.77-3.84,1.61-9.45-1.1-13.61-2.45-3.77-6.05-6.78-8.81-10.38-4-5.13-5-10.69-1.41-16.59,3.33-5.41,8.19-7.74,14.3-6.38,6.37,1.41,10.5,5.23,11.13,12.23.48,5.24,1.19,10.47,2.17,15.64.58,3.05,1.46,6.78,5.1,7.26,4,.54,4.77-3.28,6-6.15,2.83-6.53,3.84-13.41,4.46-20.45.61-6.86,2.27-13.53,10.51-15.06,6.23-1.16,11.85-.27,15.41,6,4.21,7.45,1.54,13.43-3.63,19-5.53,5.93-10.74,12.08-13.06,20.06-1,3.34-2.1,7,1.46,9.65,3.18,2.35,6.65,1.86,9.92,0,2.14-1.19,4.17-2.59,6.21-3.94,5.81-3.86,11.23-3.14,16.36,1.32,4.9,4.25,5.77,9.69,3.52,15.31-2.47,6.19-7.74,9-14.3,8.49-8.27-.67-16.14-4-24.91-1.58-6.14,1.69-9.92,4.06-11.54,10.38a86.41,86.41,0,0,1-5.59,14.71C299.41,219.53,289,224,268,217.72c-2.48-.74-4.85-3.24-8.45-1.15,1.76,5.51,6.86,8.41,10.15,12.62,12.52,16,25.25,31.88,37.88,47.81,2.13,2.69,3.49,6.2,7.82,6.2,18.64,0,30.93,11.41,42.65,23.83a37.12,37.12,0,0,0,3.13,2.66c11.11-15.72,11.56-32.59-14.6-35.82-8.36-1-14.38-5.77-14.75-15.11-.31-7.52,3.11-13.1,10.36-15.26,8.59-2.57,15.05.79,19.14,8.73.64,1.24,1.29,2.49,2,3.69,1.64,2.71,3.37,6.12,7,5.11s3.44-4.85,3.88-7.94c1.07-7.54-.75-14.6-3.55-21.52-3.12-7.72-1.94-14.78,4.91-19.72,6-4.31,12.87-4.1,18.64.49,6.62,5.25,7.44,12.34,4,19.9-3.07,6.81-5.58,13.7-3.8,21.33,2,8.34,6.12,9.73,12.42,4.14a43.77,43.77,0,0,0,9.43-12.54c4-7.49,10.64-10.43,18.56-7.9,6.35,2,10.36,7,10.45,14.22.11,8.82-4.85,13.53-12.88,15.5-6.19,1.52-12.21,3.19-16.38,8.54-2.61,3.36-5.61,6.84-3.24,11.31,2.6,4.91,7.21,3.53,11.19,2.23,3.81-1.23,7.42-1.88,11.25-.37,8.17,3.21,12.53,13.07,9.18,20.88-3.5,8.16-14.36,11.73-22.3,6.61-5.91-3.81-11.55-7.78-18.35-10-14.13-4.6-17.15-2.68-17.06,11.9.07,9.54-.62,19-3.12,28.18-2,7.2-3.12,16.9-12.27,17.82-9.67,1-13.13-8.09-16-15.57-3.74-9.61-9.11-18.16-15.22-26.3-2.41-3.22-4.66-6.89-10.11-8.27,1.35,6.93,5.51,11.77,8.26,17.17,12.7,25,20.1,51.1,20.83,79.51,1,38.52-24.52,67.44-54.89,79.18-33,12.74-66.74,12.25-100.51,5.49C144.25,483.4,94.32,454.68,56.25,407,18.37,359.6-.92,305.37.74,244.45,4.1,120.82,91.05,22.44,213.62,2.94,327-15.1,440.42,51.5,482.25,159a249.7,249.7,0,0,1-66.57,277.32c-6.79,6-14,11.58-21.19,17.18-6.9,5.39-14.07,6.9-20.38-.66-4.93-5.89-2.76-13.61,5.61-19.53a222.1,222.1,0,0,0,69.88-80.22C513.42,230.2,450.78,78.42,318.9,35.92,187.19-6.53,49.21,79.15,28.1,216.5,9.09,340.19,95.15,455.41,219.29,472c23.53,3.15,46.28-.33,66.9-13,22.78-14,31.43-37.16,23.22-62.56C302.06,373.71,288.17,355,273,337.09Zm-37.73-236.6c-.69-1.11-1.18-2.52-2.15-3.34-3.74-3.18-8.1-4.16-12.72-2.38A14.22,14.22,0,0,0,208,108.78c-.39,5.13,2.1,9.49,6.59,12.26,1,.62,3,.86,3.87.26C225.09,116.42,229.55,109.91,232.42,101.81Z" transform="translate(-0.64 0)"/></svg>