<svg width="24px" height="24px" viewBox="0 0 24 24" fill="none" xmlns="http://www.w3.org/2000/svg">
<path d="M21 11.9486C21 16.8857 16.8776 21 11.7247 21C7.80842 21 4.40746 18.84 3.06769 15.5486C2.96464 15.24 2.96464 14.9314 3.17075 14.7257C3.37687 14.52 3.68605 14.4171 3.99523 14.52C4.51052 14.6229 5.02582 14.7257 5.43806 14.7257C9.56043 14.7257 12.8583 11.5371 12.8583 7.52571C12.8583 6.29143 12.6522 5.26286 12.0338 4.02857C11.9308 3.82286 11.9308 3.51429 12.1369 3.30857C12.343 3.10286 12.5491 3 12.8583 3C17.496 3.51429 21 7.42286 21 11.9486Z" fill="#030D45"/>
</svg>
