<svg version="1.1" color="white" viewBox="0 0 42.6 41.6" xmlns="http://www.w3.org/2000/svg" xmlns:cc="http://creativecommons.org/ns#" xmlns:dc="http://purl.org/dc/elements/1.1/" xmlns:rdf="http://www.w3.org/1999/02/22-rdf-syntax-ns#">
 <metadata>
  <rdf:rdf>
   <cc:work rdf:about="">
    <dc:format>image/svg+xml</dc:format>
    <dc:type rdf:resource="http://purl.org/dc/dcmitype/StillImage"></dc:type>
    <dc:title></dc:title>
   </cc:work>
  </rdf:rdf>
 </metadata>
 <g transform="translate(-57 -116)" fill="currentColor">
  <path d="m78.3 116c-11.8 0-21.3 9.54-21.3 21.3 0 9.41 6.1 17.4 14.6 20.2 1.06 0.197 1.46-0.462 1.46-1.02 0-0.508-0.0198-2.19-0.0289-3.97-5.93 1.29-7.18-2.51-7.18-2.51-0.969-2.46-2.37-3.12-2.37-3.12-1.93-1.32 0.146-1.3 0.146-1.3 2.14 0.15 3.27 2.2 3.27 2.2 1.9 3.26 4.98 2.31 6.2 1.77 0.192-1.38 0.743-2.32 1.35-2.85-4.73-0.538-9.71-2.37-9.71-10.5 0-2.33 0.832-4.23 2.19-5.72-0.221-0.537-0.95-2.7 0.207-5.64 0 0 1.79-0.572 5.86 2.18 1.7-0.472 3.52-0.709 5.33-0.717 1.81 8e-3 3.63 0.245 5.34 0.717 4.07-2.76 5.85-2.18 5.85-2.18 1.16 2.93 0.43 5.1 0.209 5.64 1.37 1.49 2.19 3.39 2.19 5.72 0 8.18-4.98 9.98-9.73 10.5 0.764 0.661 1.44 1.96 1.44 3.95 0 2.85-0.0243 5.14-0.0243 5.85 0 0.567 0.383 1.23 1.46 1.02 8.46-2.82 14.6-10.8 14.6-20.2 0-11.8-9.54-21.3-21.3-21.3" style="fill-rule:evenodd"></path>
  <path d="m65 147c-0.0469 0.106-0.213 0.138-0.365 0.0649-0.155-0.0695-0.241-0.214-0.191-0.32 0.0459-0.109 0.212-0.139 0.367-0.0663 0.155 0.0695 0.243 0.215 0.189 0.321"></path>
  <path d="m65.9 148c-0.102 0.0942-0.301 0.0505-0.435-0.0984-0.14-0.149-0.165-0.347-0.0624-0.443 0.105-0.0942 0.297-0.0501 0.437 0.0984 0.14 0.15 0.167 0.347 0.0607 0.443"></path>
  <path d="m66.7 149c-0.131 0.091-0.344 6e-3 -0.476-0.183-0.131-0.19-0.131-0.417 0.0032-0.508 0.132-0.091 0.343-9e-3 0.476 0.179 0.13 0.193 0.13 0.42-0.0032 0.513"></path>
  <path d="m67.9 150c-0.117 0.129-0.365 0.0942-0.548-0.0815-0.186-0.172-0.238-0.416-0.121-0.544 0.119-0.129 0.369-0.0928 0.552 0.0815 0.185 0.171 0.241 0.417 0.117 0.544"></path>
  <path d="m69.5 151c-0.0519 0.167-0.291 0.242-0.532 0.171-0.241-0.073-0.399-0.268-0.35-0.437 0.0501-0.168 0.291-0.247 0.534-0.171 0.241 0.0727 0.399 0.267 0.349 0.436"></path>
  <path d="m71.2 151c6e-3 0.176-0.199 0.321-0.452 0.325-0.255 6e-3 -0.461-0.137-0.464-0.309 0-0.177 0.2-0.321 0.455-0.326 0.253-5e-3 0.461 0.137 0.461 0.311"></path>
  <path d="m72.8 151c0.0303 0.171-0.146 0.347-0.397 0.394-0.247 0.0455-0.476-0.0607-0.508-0.23-0.0307-0.176 0.148-0.352 0.395-0.397 0.252-0.0437 0.477 0.0593 0.509 0.234"></path>
 </g>
</svg>
